<?xml version="1.0" encoding="UTF-8"?>
<svg width="258px" height="101px" viewBox="0 0 258 101" version="1.1" xmlns="http://www.w3.org/2000/svg" xmlns:xlink="http://www.w3.org/1999/xlink">
    <!-- Generator: Sketch 52.3 (67297) - http://www.bohemiancoding.com/sketch -->
    <title>Logo/Basis</title>
    <desc>Created with Sketch.</desc>
    <g id="Symbols" stroke="none" stroke-width="1" fill="none" fill-rule="evenodd">
        <g id="Navigation/Desk/Solutions" transform="translate(-38.000000, -22.000000)">
            <g id="Logo/Basis" transform="translate(42.000000, 24.000000)">
                <path d="M112.722019,50.5847059 C112.752091,48.4193512 112.428499,46.263594 111.76399,44.2023529 C111.174821,42.404901 110.218961,40.7491089 108.956813,39.3396078 C107.679893,37.9544453 106.101292,36.8812971 104.343066,36.2031373 C102.329128,35.4362236 100.187146,35.0607387 98.0322384,35.0968627 C95.4925959,35.0564308 92.9701917,35.5202669 90.6113139,36.4614706 C88.4969825,37.3197555 86.5955052,38.6286913 85.0395377,40.2969608 C83.4672018,42.0242025 82.2728496,44.0603106 81.5328467,46.275098 C80.6975482,48.757865 80.2862912,51.3633943 80.3163017,53.982549 C80.2865328,56.5572905 80.7117492,59.1170761 81.5723844,61.5441176 C82.3501859,63.7400549 83.5953533,65.7412856 85.2220195,67.4098039 C86.8841908,69.0723349 88.886595,70.355872 91.0918491,71.1723529 C93.6462593,72.099028 96.3492122,72.5492022 99.0663017,72.5004902 C101.421927,72.5058753 103.771934,72.2706331 106.079684,71.7984314 C108.176287,71.3868333 110.210668,70.7054393 112.131995,69.7712745 L110.875912,62.9117647 C109.321564,63.6137339 107.687486,64.1240227 106.009732,64.4313725 C104.161955,64.7900596 102.283775,64.9691954 100.40146,64.9662745 C97.0519059,64.9662745 94.6188159,64.1862092 93.1021898,62.6260784 C91.5855637,61.0659477 90.7745337,58.9688889 90.6690998,56.334902 L111.982968,56.334902 C112.243597,55.4298651 112.42874,54.5048054 112.536496,53.5692157 C112.659543,52.5781059 112.7215,51.5803745 112.722019,50.5816667 L112.722019,50.5847059 Z M103.050487,49.5513725 L90.7238443,49.5513725 C90.9266018,47.3388235 91.5784672,45.5061765 92.6794404,44.0534314 C93.7804136,42.6006863 95.3680049,41.8753268 97.4422141,41.8773529 C99.5549473,41.8773529 101.080697,42.5783987 102.019465,43.9804902 C102.958232,45.3825817 103.301906,47.2354902 103.050487,49.5392157 L103.050487,49.5513725 Z" id="Shape" fill="#00407A"></path>
                <path d="M159.154501,19.6728431 L149.041909,19.6728431 L149.041971,62.3039216 C149.03828,63.5616104 149.199839,64.8143407 149.522506,66.03 C149.832046,67.2203673 150.388475,68.3324402 151.155718,69.2941176 C151.95631,70.2825875 152.981197,71.0660775 154.145377,71.5796078 C155.374088,72.144902 156.899838,72.427549 158.722628,72.427549 C159.932578,72.4259008 161.140927,72.3395785 162.338808,72.1692157 C163.386629,72.035566 164.423399,71.8263269 165.440998,71.5431373 L165.069951,64.4617647 C164.6074,64.563376 164.139221,64.6374605 163.667883,64.6836275 C163.175182,64.7322549 162.706813,64.7565686 162.265815,64.7565686 C161.131387,64.7565686 160.33455,64.4739216 159.86618,63.9086275 C159.39781,63.3433333 159.163625,62.4953922 159.163625,61.3617647 L159.163625,19.6728431 L159.154501,19.6728431 Z" id="Shape" fill="#00407A"></path>
                <path d="M181.079684,19.6728431 L170.967091,19.6728431 L170.967153,62.3039216 C170.963462,63.5616104 171.125021,64.8143407 171.447689,66.03 C171.754495,67.2196263 172.307788,68.3316444 173.071776,69.2941176 C173.872369,70.2825875 174.897255,71.0660775 176.061436,71.5796078 C177.290146,72.144902 178.815896,72.427549 180.638686,72.427549 C181.848636,72.4259008 183.056986,72.3395785 184.254866,72.1692157 C185.302687,72.035566 186.339457,71.8263269 187.357056,71.5431373 L186.98601,64.4617647 C186.523458,64.563376 186.055279,64.6374605 185.583942,64.6836275 C185.091241,64.7322549 184.622871,64.7565686 184.181873,64.7565686 C183.047445,64.7565686 182.250608,64.4739216 181.782238,63.9086275 C181.313869,63.3433333 181.079684,62.4953922 181.079684,61.3617647 L181.079684,19.6728431 Z" id="Shape" fill="#00407A"></path>
                <polygon id="Shape" fill="#00407A" points="203.521898 71.7558824 203.521898 35.8293137 193.409367 35.8293137 193.409367 71.7558824 203.521898 71.7558824"></polygon>
                <path d="M236.96472,55.9002941 C236.146103,54.6679464 235.122635,53.5845559 233.938564,52.6969608 C232.765189,51.8205532 231.488362,51.0917445 230.136861,50.5269608 C228.780414,49.9616667 227.586172,49.4551307 226.554136,49.0073529 C225.134834,48.3711438 223.905109,47.8078758 222.864964,47.317549 C221.824818,46.8272222 221.307786,46.090719 221.313869,45.1080392 C221.313869,44.0787582 221.744728,43.4040523 222.606448,43.0839216 C223.715279,42.729787 224.876694,42.5683933 226.040146,42.6067647 C227.623144,42.6086299 229.198981,42.8191382 230.726886,43.2328431 C232.254394,43.644046 233.747224,44.1745006 235.191606,44.8193137 L236.742701,37.6163725 C235.017526,36.6899743 233.164459,36.0242424 231.243917,35.6408824 C229.285694,35.2631549 227.295458,35.0758751 225.301095,35.0816667 C223.446224,35.0676358 221.597207,35.2913223 219.79927,35.7472549 C218.214997,36.138117 216.714694,36.8125708 215.371046,37.7379412 C214.125168,38.6128601 213.111516,39.7781023 212.417883,41.1327451 C211.673785,42.643655 211.306486,44.3120165 211.347324,45.9954902 C211.347324,47.7156863 211.65146,49.1542484 212.259732,50.3111765 C212.87153,51.464241 213.697236,52.4904872 214.692822,53.3351961 C215.754555,54.2300536 216.934533,54.9745615 218.199513,55.5477451 C219.529603,56.1555882 220.90734,56.7634314 222.332725,57.3712745 C224.102798,58.1067647 225.530211,58.7338562 226.614964,59.252549 C227.699716,59.7712418 228.241079,60.5948693 228.239051,61.7234314 C228.239051,63.0039542 227.685523,63.8893791 226.578467,64.3797059 C225.25363,64.9113421 223.832621,65.1618095 222.405718,65.1151961 C220.692508,65.1172158 218.98423,64.9317309 217.311436,64.5620588 C215.649462,64.1933058 214.021619,63.6849637 212.445255,63.042451 L210.979319,70.2058824 C212.82205,70.9599522 214.739751,71.5162124 216.700122,71.8652941 C218.70339,72.2656671 220.739986,72.4763061 222.782847,72.4944118 C224.852927,72.5144681 226.916282,72.2558364 228.917275,71.7254902 C230.664375,71.2657207 232.313254,70.4923243 233.783455,69.4430392 C236.636166,67.4001357 238.294719,64.0808225 238.21472,60.5746078 C238.21472,58.7105556 237.796026,57.1534641 236.958637,55.9033333 L236.96472,55.9002941 Z" id="Shape" fill="#00407A"></path>
                <path d="M83.9416058,81.332451 L83.9416058,92.5046078 L90.4501217,92.5046078 L90.4501217,90.6415686 L86.2895377,90.6415686 L86.2895377,81.332451 L83.9416058,81.332451 Z M102.396594,84.6755882 C102.158961,83.9942484 101.787776,83.3670898 101.304745,82.8307843 C100.813961,82.2933003 100.213455,81.8673355 99.5437956,81.5816667 C98.0086578,80.9657787 96.2948702,80.9657787 94.7597324,81.5816667 C94.0880364,81.8684216 93.4847644,82.2941429 92.9896594,82.8307843 C92.5023922,83.3639694 92.1306666,83.9920423 91.8978102,84.6755882 C91.4030704,86.1248129 91.4030704,87.6970499 91.8978102,89.1462745 C92.1336871,89.8220799 92.5052327,90.4426092 92.9896594,90.9698039 C93.4847644,91.5064454 94.0880364,91.9321666 94.7597324,92.2189216 C96.2948702,92.8348096 98.0086578,92.8348096 99.5437956,92.2189216 C100.213455,91.9332527 100.813961,91.507288 101.304745,90.9698039 C101.784982,90.439498 102.155993,89.8198622 102.396594,89.1462745 C102.899501,87.698415 102.899501,86.1234478 102.396594,84.6755882 Z M95.7055961,90.5443137 C95.3042611,90.3507932 94.9533947,90.0667608 94.6806569,89.7146078 C94.3996852,89.3410251 94.1931824,88.9169613 94.0723844,88.4654902 C93.8047848,87.4432777 93.8047848,86.3694674 94.0723844,85.3472549 C94.1923156,84.8945306 94.3988786,84.4693112 94.6806569,84.095098 C94.9533947,83.7429451 95.3042611,83.4589127 95.7055961,83.2653922 C96.6194281,82.8641076 97.659769,82.8641076 98.573601,83.2653922 C98.974936,83.4589127 99.3258023,83.7429451 99.5985401,84.095098 C99.8815903,84.4685333 100.08828,84.8940133 100.206813,85.3472549 C100.478149,86.3689837 100.478149,87.4437614 100.206813,88.4654902 C100.087611,88.9175548 99.8809642,89.3419142 99.5985401,89.7146078 C99.3258023,90.0667608 98.974936,90.3507932 98.573601,90.5443137 C97.6605665,90.9493751 96.6186306,90.9493751 95.7055961,90.5443137 Z M107.871046,81.5451961 C107.153903,81.8112416 106.500998,82.2254916 105.954988,82.7608824 C105.422409,83.2914554 105.013288,83.9327193 104.756691,84.6391176 C104.474378,85.4182419 104.335282,86.2419339 104.346107,87.0704902 C104.335844,87.8526729 104.472003,88.6298795 104.747567,89.3620588 C105.005073,90.0328501 105.405677,90.6395548 105.921533,91.14 C106.459042,91.651464 107.097012,92.0457741 107.795012,92.2979412 C108.594021,92.5826482 109.437709,92.7216196 110.285888,92.7082353 C111.000239,92.7077026 111.712981,92.6405487 112.414842,92.5076471 C113.049832,92.3955499 113.670836,92.2151885 114.267032,91.9697059 L114.267032,87.4108824 L112.153285,87.4108824 L112.153285,90.7145098 C111.908218,90.7865994 111.658141,90.8404397 111.405109,90.8755882 C111.136163,90.9142584 110.864782,90.9335565 110.593066,90.9333333 C109.295418,90.9333333 108.321168,90.6081373 107.670316,89.9577451 C107.019465,89.3073529 106.695053,88.3489869 106.69708,87.0826471 C106.686372,86.4725452 106.779972,85.8650941 106.973844,85.2864706 C107.287464,84.3260652 108.037643,83.5707791 108.99635,83.2501961 C109.521829,83.0757235 110.072846,82.9904584 110.626521,82.9979412 C111.157208,82.9958642 111.686524,83.0519178 112.204988,83.165098 C112.708527,83.2823214 113.201806,83.4398562 113.680049,83.6361765 L114.01764,81.8126471 C113.477943,81.5612204 112.907281,81.3823759 112.32056,81.2807843 C111.699426,81.177749 111.070619,81.1279273 110.440998,81.1318627 C109.566656,81.1174542 108.696947,81.2616169 107.874088,81.5573529 L107.871046,81.5451961 Z M119.21837,81.3202941 L116.867397,81.3202941 L116.867397,92.492451 L119.21837,92.492451 L119.21837,81.332451 L119.21837,81.3202941 Z M128.81691,88.0308824 C128.628186,87.661773 128.372419,87.3309531 128.062652,87.0552941 C127.732829,86.7672874 127.369266,86.5203206 126.979927,86.3198039 C126.574412,86.1070588 126.146594,85.9044444 125.696472,85.7119608 C125.361922,85.5660784 125.0882,85.4353922 124.86618,85.3168627 C124.676501,85.2205852 124.498871,85.1022485 124.336983,84.9643137 C124.214124,84.8642887 124.11886,84.7345701 124.060219,84.587451 C124.00619,84.4374631 123.980411,84.2787767 123.984185,84.1194118 C123.962534,83.7689908 124.137035,83.43545 124.437348,83.2532353 C124.802175,83.0543815 125.21438,82.9587587 125.629562,82.9766667 C126.07437,82.9774422 126.517141,83.0367092 126.946472,83.1529412 C127.371586,83.2681113 127.784985,83.4227722 128.181265,83.614902 L128.61618,81.8187255 C128.154935,81.5776886 127.664168,81.3978679 127.156326,81.2838235 C126.610568,81.1676722 126.053718,81.1116189 125.495742,81.1166667 C124.317721,81.1166667 123.379968,81.3932353 122.682482,81.9463725 C121.707455,82.8239379 121.373784,84.2108341 121.843066,85.4353922 C121.988545,85.769294 122.194797,86.0733021 122.451338,86.3319608 C122.73418,86.6195747 123.056801,86.8652078 123.409367,87.0613725 C123.830613,87.3002856 124.267537,87.5104705 124.717153,87.6904902 C125.264158,87.8926065 125.783304,88.1632296 126.262165,88.4958824 C126.58058,88.7253889 126.768587,89.0943456 126.767032,89.4866667 C126.784256,89.8901915 126.581836,90.2714955 126.237835,90.4835294 C125.825107,90.7294148 125.349232,90.8488281 124.869221,90.8269608 C124.350658,90.8279047 123.834237,90.7604597 123.333333,90.6263725 C122.869325,90.5057344 122.417323,90.3429658 121.982968,90.140098 L121.49635,91.9362745 C122.022104,92.1896275 122.576628,92.3784203 123.14781,92.4985294 C123.735529,92.6249639 124.334948,92.689142 124.936131,92.69 C125.51662,92.6964621 126.094492,92.6113297 126.648418,92.4377451 C127.128767,92.2897383 127.575945,92.0503109 127.965328,91.7326471 C128.322777,91.4408466 128.612335,91.0747472 128.813869,90.6598039 C129.018023,90.2362118 129.122078,89.7714171 129.118005,89.3012745 C129.126925,88.8599642 129.028838,88.4230516 128.832117,88.0278431 L128.81691,88.0308824 Z M130.31326,81.3202941 L130.31326,83.1802941 L133.400243,83.1802941 L133.400243,92.492451 L135.751217,92.492451 L135.751217,83.192451 L138.8382,83.192451 L138.8382,81.332451 L130.31326,81.3202941 Z M143.086983,81.3202941 L140.739051,81.3202941 L140.739051,92.492451 L143.086983,92.492451 L143.086983,81.332451 L143.086983,81.3202941 Z M148.710462,81.5543137 C148.009398,81.8221094 147.373737,82.2366036 146.846107,82.77 C146.340039,83.2895221 145.951152,83.911302 145.705596,84.5935294 C145.190476,86.094545 145.190476,87.7242786 145.705596,89.2252941 C145.951913,89.9071519 146.340705,90.5287794 146.846107,91.0488235 C147.373617,91.5823661 148.009312,91.9968823 148.710462,92.2645098 C149.525859,92.5696725 150.391607,92.7181584 151.262165,92.7021569 C151.541971,92.7021569 151.827859,92.7021569 152.116788,92.6596078 C152.405718,92.6170588 152.691606,92.5927451 152.965328,92.5441176 C153.231935,92.4972532 153.495886,92.4363846 153.756083,92.3617647 C153.989366,92.2958907 154.216332,92.2094399 154.434307,92.1034314 L154.099757,90.3862745 C153.71193,90.5278529 153.313207,90.6376277 152.907543,90.7145098 C152.481701,90.7975248 152.048832,90.8392544 151.614964,90.8391176 C150.337591,90.8391176 149.361314,90.5078431 148.686131,89.8452941 C148.010949,89.1827451 147.684509,88.2081699 147.706813,86.9215686 C147.706813,85.630915 148.045418,84.6533007 148.722628,83.9887255 C149.399838,83.3241503 150.376115,82.9928758 151.65146,82.994902 C152.085425,82.9958042 152.518291,83.0385514 152.944039,83.122549 C153.349929,83.1970741 153.748762,83.3058626 154.136253,83.4477451 L154.470803,81.7336275 C154.252829,81.6276189 154.025862,81.5411681 153.792579,81.4752941 C153.532382,81.4006743 153.268431,81.3398056 153.001825,81.2929412 C152.728102,81.2412745 152.445255,81.2048039 152.153285,81.1744118 C151.861314,81.1440196 151.578467,81.134902 151.298662,81.134902 C150.428412,81.119449 149.562952,81.2668548 148.746959,81.5695098 L148.710462,81.5543137 Z M167.393552,88.0308824 C167.202571,87.6623836 166.945939,87.3317789 166.636253,87.0552941 C166.306971,86.7665882 165.943318,86.5195607 165.553528,86.3198039 C165.148013,86.1070588 164.720195,85.9044444 164.270073,85.7119608 C163.935523,85.5660784 163.6618,85.4353922 163.439781,85.3168627 C163.250102,85.2205852 163.072472,85.1022485 162.910584,84.9643137 C162.788584,84.8634756 162.693495,84.733995 162.63382,84.587451 C162.581276,84.4370827 162.555541,84.278668 162.557786,84.1194118 C162.551538,83.7688174 162.740029,83.443578 163.047445,83.2745098 C163.412383,83.0759453 163.824506,82.9803414 164.239659,82.9979412 C164.684481,82.9985045 165.12728,83.0577752 165.556569,83.1742157 C165.981683,83.2893859 166.395082,83.4440467 166.791363,83.6361765 L167.229319,81.84 C166.763273,81.5963255 166.267399,81.4144634 165.754258,81.2990196 C165.208545,81.1825773 164.651663,81.1265207 164.093674,81.1318627 C162.919708,81.1318627 161.96472,81.4084314 161.283455,81.9615686 C160.308428,82.8391339 159.974758,84.2260302 160.444039,85.4505882 C160.589518,85.7844901 160.795771,86.0884982 161.052311,86.3471569 C161.33343,86.6354317 161.655151,86.8811592 162.007299,87.0765686 C162.429606,87.3154573 162.86754,87.5256392 163.318127,87.7056863 C163.864235,87.9076757 164.38239,88.1783152 164.860097,88.5110784 C165.181739,88.7378075 165.370664,89.1085678 165.364964,89.5018627 C165.382188,89.9053876 165.179768,90.2866916 164.835766,90.4987255 C164.423039,90.7446108 163.947164,90.8640241 163.467153,90.8421569 C162.94859,90.8431008 162.432169,90.7756558 161.931265,90.6415686 C161.467411,90.5204336 161.015454,90.357681 160.5809,90.1552941 L160.094282,91.9514706 C160.62126,92.2044228 161.176741,92.3931937 161.748783,92.5137255 C162.335462,92.6402383 162.933881,92.7044185 163.534063,92.7051961 C164.114552,92.7116581 164.692424,92.6265258 165.24635,92.4529412 C165.727624,92.3049392 166.1758,92.0655306 166.566302,91.7478431 C166.921957,91.4550475 167.210329,91.0891353 167.4118,90.675 C167.616997,90.2517704 167.721107,89.7867289 167.715937,89.3164706 C167.7239,88.8752571 167.625862,88.438569 167.430049,88.0430392 L167.393552,88.0308824 Z M180.076034,84.6877451 C179.837371,84.0068839 179.4663,83.3799185 178.984185,82.8429412 C178.491645,82.3060935 177.8903,81.8802687 177.220195,81.5938235 C175.685057,80.9779355 173.971269,80.9779355 172.436131,81.5938235 C171.764435,81.8805785 171.161163,82.3062997 170.666058,82.8429412 C170.179844,83.3769038 169.808254,84.0047463 169.574209,84.6877451 C169.084465,86.1377937 169.084465,87.7083828 169.574209,89.1584314 C169.811244,89.8336952 170.182656,90.4540028 170.666058,90.9819608 C171.161163,91.5186022 171.764435,91.9443235 172.436131,92.2310784 C173.971269,92.8469664 175.685057,92.8469664 177.220195,92.2310784 C177.8903,91.9446332 178.491645,91.5188085 178.984185,90.9819608 C179.463405,90.4509027 179.834289,89.8314787 180.076034,89.1584314 C180.578942,87.7105718 180.578942,86.1356046 180.076034,84.6877451 Z M173.385036,90.5564706 C172.984235,90.3621105 172.633546,90.0782219 172.360097,89.7267647 C172.077673,89.354071 171.871026,88.9297117 171.751825,88.4776471 C171.484225,87.4554346 171.484225,86.3816243 171.751825,85.3594118 C171.870358,84.9061701 172.077047,84.4806901 172.360097,84.1072549 C172.633546,83.7557977 172.984235,83.4719091 173.385036,83.277549 C174.299975,82.8764949 175.341144,82.8764949 176.256083,83.277549 C176.656019,83.4719304 177.005712,83.7558552 177.277981,84.1072549 C177.560963,84.4807318 177.767645,84.9061977 177.886253,85.3594118 C178.153853,86.3816243 178.153853,87.4554346 177.886253,88.4776471 C177.766977,88.9296842 177.560337,89.3540298 177.277981,89.7267647 C177.005712,90.0781644 176.656019,90.3620893 176.256083,90.5564706 C175.342018,90.9616689 174.299101,90.9616689 173.385036,90.5564706 Z M182.591241,81.332451 L182.591241,92.5046078 L189.105839,92.5046078 L189.105839,90.6415686 L184.987835,90.6415686 L184.987835,81.332451 L182.591241,81.332451 Z M197.597324,88.590098 C197.633984,89.1955982 197.42954,89.7910175 197.028589,90.2464706 C196.03788,91.0405739 194.628178,91.0405739 193.63747,90.2464706 C193.23542,89.7914912 193.029864,89.1960191 193.065693,88.590098 L193.065693,81.332451 L190.71472,81.332451 L190.71472,88.4776471 C190.701666,89.0704118 190.804992,89.659987 191.018856,90.2130392 C191.222443,90.7187035 191.533794,91.1739927 191.931265,91.5472549 C192.364445,91.9333604 192.875873,92.2215483 193.430657,92.3921569 C194.695187,92.793279 196.052988,92.793279 197.317518,92.3921569 C197.856024,92.2115883 198.35036,91.9195454 198.768248,91.535098 C199.165719,91.1618359 199.477071,90.7065466 199.680657,90.2008824 C199.899715,89.6488727 200.008213,89.0592628 200,88.4654902 L200,81.332451 L197.649027,81.332451 L197.649027,88.590098 L197.597324,88.590098 Z M201.742701,81.332451 L201.742701,83.192451 L204.832725,83.192451 L204.832725,92.5046078 L207.183698,92.5046078 L207.183698,83.192451 L210.270681,83.192451 L210.270681,81.332451 L201.742701,81.332451 Z M214.534672,81.332451 L212.183698,81.332451 L212.183698,92.5046078 L214.534672,92.5046078 L214.534672,81.332451 Z M227.636861,84.6755882 C227.398198,83.994727 227.027128,83.3677616 226.545012,82.8307843 C226.052472,82.2939366 225.451127,81.8681119 224.781022,81.5816667 C223.245884,80.9657787 221.532096,80.9657787 219.996959,81.5816667 C219.325263,81.8684216 218.721991,82.2941429 218.226886,82.8307843 C217.740671,83.3647469 217.369082,83.9925894 217.135036,84.6755882 C216.645293,86.1256368 216.645293,87.6962259 217.135036,89.1462745 C217.372071,89.8215384 217.743484,90.4418459 218.226886,90.9698039 C218.721991,91.5064454 219.325263,91.9321666 219.996959,92.2189216 C221.532096,92.8348096 223.245884,92.8348096 224.781022,92.2189216 C225.451127,91.9324764 226.052472,91.5066516 226.545012,90.9698039 C227.024233,90.4387459 227.395116,89.8193218 227.636861,89.1462745 C228.139769,87.698415 228.139769,86.1234478 227.636861,84.6755882 Z M220.945864,90.5443137 C220.545062,90.3499537 220.194373,90.0660651 219.920925,89.7146078 C219.6385,89.3419142 219.431854,88.9175548 219.312652,88.4654902 C219.045052,87.4432777 219.045052,86.3694674 219.312652,85.3472549 C219.431185,84.8940133 219.637874,84.4685333 219.920925,84.095098 C220.194373,83.7436408 220.545062,83.4597522 220.945864,83.2653922 C221.860803,82.8643381 222.901971,82.8643381 223.81691,83.2653922 C224.216846,83.4597735 224.566539,83.7436983 224.838808,84.095098 C225.122892,84.467899 225.329686,84.8935941 225.44708,85.3472549 C225.71468,86.3694674 225.71468,87.4432777 225.44708,88.4654902 C225.32908,88.9179991 225.122323,89.3425844 224.838808,89.7146078 C224.566539,90.0660075 224.216846,90.3499324 223.81691,90.5443137 C222.902845,90.949512 221.859929,90.949512 220.945864,90.5443137 Z M239.872263,92.492451 L239.872263,81.332451 L237.621655,81.332451 L237.621655,88.6448039 L232.402676,81.332451 L230.152068,81.332451 L230.152068,92.5046078 L232.402676,92.5046078 L232.402676,85.1892157 L237.621655,92.5046078 L239.872263,92.492451 Z M249.388686,88.0308824 C249.199962,87.661773 248.944195,87.3309531 248.634428,87.0552941 C248.304605,86.7672874 247.941042,86.5203206 247.551703,86.3198039 C247.141119,86.1070588 246.715328,85.9064706 246.268248,85.7119608 C245.930657,85.5660784 245.659976,85.4353922 245.434915,85.3168627 C245.246591,85.2198809 245.070047,85.1015881 244.908759,84.9643137 C244.78508,84.8643779 244.688806,84.7347089 244.628954,84.587451 C244.577505,84.4368831 244.552802,84.2784841 244.555961,84.1194118 C244.532913,83.7686945 244.70777,83.4344722 245.009124,83.2532353 C245.373951,83.0543815 245.786156,82.9587587 246.201338,82.9766667 C246.646146,82.9774422 247.088917,83.0367092 247.518248,83.1529412 C247.942377,83.2681215 248.354766,83.4227853 248.75,83.614902 L249.187956,81.8187255 C248.726241,81.5787512 248.235615,81.3989822 247.728102,81.2838235 C247.181339,81.1675237 246.623465,81.1114699 246.064477,81.1166667 C244.890511,81.1166667 243.953771,81.3932353 243.254258,81.9463725 C242.279231,82.8239379 241.945561,84.2108341 242.414842,85.4353922 C242.560321,85.769294 242.766573,86.0733021 243.023114,86.3319608 C243.304233,86.6202356 243.625953,86.8659631 243.978102,87.0613725 C244.400718,87.2996691 244.838612,87.5098318 245.288929,87.6904902 C245.835644,87.8932593 246.35471,88.1638408 246.833942,88.4958824 C247.153611,88.7239901 247.341108,89.0941756 247.335766,89.4866667 C247.352991,89.8901915 247.150571,90.2714955 246.806569,90.4835294 C246.395204,90.7300096 245.920113,90.8494916 245.440998,90.8269608 C244.927513,90.8267484 244.416269,90.7593118 243.920316,90.6263725 C243.455484,90.505222 243.002518,90.3424727 242.56691,90.140098 L242.080292,91.9362745 C242.60727,92.1892268 243.162751,92.3779976 243.734793,92.4985294 C244.322512,92.6249639 244.921931,92.689142 245.523114,92.69 C246.103589,92.6962592 246.681429,92.6111315 247.235401,92.4377451 C247.715486,92.2891048 248.162547,92.0497396 248.552311,91.7326471 C248.907988,91.4391092 249.197217,91.073426 249.400852,90.6598039 C249.605006,90.2362118 249.709061,89.7714171 249.704988,89.3012745 C249.713908,88.8599642 249.615821,88.4230516 249.4191,88.0278431 L249.388686,88.0308824 Z" id="Shape" fill="#00407A"></path>
                <path d="M9.0419708,81.9889216 L8.91423358,81.3810784 L8.75304136,81.1592157 L8.3120438,81.0376471 L28.8564477,7.81990196 L29.3004866,7.9445098 L29.8813869,7.35490196 L63.8868613,40.6981373 L63.5644769,41.0294118 L63.8686131,41.1783333 L63.7256691,41.4822549 L63.8017032,41.5855882 L63.6100973,41.7284314 L48.3576642,73.7252941 L47.7493917,73.4213725 L47.8801703,74.0626471 L9.0419708,81.9889216 Z M42.5790754,57.2679412 L11.6027981,80.1684314 L46.9951338,72.9563725 L42.5790754,57.2679412 Z M29.4221411,10.5065686 L9.98175182,79.8006863 L42.2201946,55.9732353 L29.4221411,10.5065686 Z M43.6770073,56.4595098 L47.9349148,71.6343137 L61.4385645,43.3179412 L43.6770073,56.4595098 Z M30.5413625,9.78323529 L43.3150852,55.1496078 L62.4087591,41.0294118 L30.5413625,9.78323529 Z" id="Shape" fill="#00BDE6"></path>
                <path d="M8.87469586,89.7358824 C13.776055,89.7358824 17.7493917,85.7653504 17.7493917,80.867451 C17.7493917,75.9695516 13.776055,71.9990196 8.87469586,71.9990196 C3.97333668,71.9990196 6.00243384e-16,75.9695516 0,80.867451 C6.00243384e-16,85.7653504 3.97333668,89.7358824 8.87469586,89.7358824 Z" id="Shape" fill="#00407A"></path>
                <path d="M29.4829684,16.0257843 C32.6655558,16.0270137 35.5354491,14.1121686 36.7542251,11.1742696 C37.9730011,8.2363705 37.3005989,4.85409179 35.0506047,2.60481635 C32.8006105,0.355540913 29.4162028,-0.317694247 26.4757575,0.899085486 C23.5353122,2.11586522 21.6180051,4.98299224 21.6180049,8.16333333 C21.617198,10.2483055 22.4454696,12.2481585 23.9205238,13.7227415 C25.395578,15.1973245 27.3965233,16.0257845 29.4829684,16.0257843 Z" id="Shape" fill="#00BDE6"></path>
                <path d="M63.0809002,48.3539216 C65.9500847,48.3551508 68.5373776,46.6287995 69.6359352,43.9801249 C70.7344929,41.3314503 70.1278856,38.2822744 68.0990657,36.2548866 C66.0702457,34.2274988 63.018916,33.6213197 60.3683704,34.7191019 C57.7178249,35.8168841 55.9902541,38.4023507 55.9914842,41.2695098 C55.9914842,45.1821224 59.1655239,48.3539216 63.0809002,48.3539216 Z" id="Shape" fill="#6E7C7C"></path>
                <path d="M47.7889294,79.3235294 C51.1483257,79.3235294 53.8716545,76.602123 53.8716545,73.245098 C53.8716545,69.8880731 51.1483257,67.1666667 47.7889294,67.1666667 C44.4295332,67.1666667 41.7062044,69.8880731 41.7062044,73.245098 C41.7062044,76.602123 44.4295332,79.3235294 47.7889294,79.3235294 Z" id="Shape" fill="#BFB800"></path>
                <path d="M198.442822,31.3039216 C201.802219,31.3039216 204.525547,28.5825151 204.525547,25.2254902 C204.525547,21.8684652 201.802219,19.1470588 198.442822,19.1470588 C195.083426,19.1470588 192.360097,21.8684652 192.360097,25.2254902 C192.360097,26.8375904 193.000954,28.3836632 194.141686,29.5235902 C195.282418,30.6635172 196.829583,31.3039216 198.442822,31.3039216 Z" id="Shape" fill="#00BDE6"></path>
                <path d="M122.965738,49.1988235 L137.834141,49.1988235 C139.891997,49.1988235 141.560219,50.8670457 141.560219,52.924902 L141.560219,52.924902 C141.560219,54.9827583 139.891997,56.6509804 137.834141,56.6509804 L122.965738,56.6509804 C120.907882,56.6509804 119.239659,54.9827583 119.239659,52.924902 L119.239659,52.924902 C119.239659,50.8670457 120.907882,49.1988235 122.965738,49.1988235 Z" id="Rectangle-path" fill="#00407A"></path>
            </g>
        </g>
    </g>
</svg>