<?xml version="1.0" encoding="UTF-8" standalone="no"?>
<!DOCTYPE svg PUBLIC "-//W3C//DTD SVG 1.1//EN" "http://www.w3.org/Graphics/SVG/1.1/DTD/svg11.dtd">
<svg width="100%" height="100%" viewBox="0 0 174 65" version="1.1" xmlns="http://www.w3.org/2000/svg" xmlns:xlink="http://www.w3.org/1999/xlink" xml:space="preserve" xmlns:serif="http://www.serif.com/" style="fill-rule:evenodd;clip-rule:evenodd;stroke-linejoin:round;stroke-miterlimit:2;">
    <clipPath id="_clip1">
        <rect x="0" y="0" width="3507.87" height="1417.32"/>
    </clipPath>
    <g clip-path="url(#_clip1)">
        <g id="Layer-1" serif:id="Layer 1">
        </g>
    </g>
    <g transform="matrix(0.220891,0,0,0.220891,-1.06237,-2.47561)">
        <g id="Layer-11" serif:id="Layer 1">
            <g>
                <g id="_--IDML-" serif:id=" [IDML]" transform="matrix(1,0,0,1,263.098,21.7831)">
                    <path d="M114.569,154.86C114.569,147.092 113.515,140.095 111.414,133.863C109.309,127.636 106.233,122.296 102.19,117.843C98.143,113.394 93.087,109.954 87.019,107.527C80.951,105.1 74.033,103.886 66.266,103.886C57.201,103.886 49.07,105.384 41.871,108.377C34.669,111.373 28.559,115.579 23.545,120.999C18.527,126.422 14.685,132.976 12.015,140.66C9.345,148.348 8.01,156.801 8.01,166.025C8.01,175.09 9.383,183.38 12.137,190.905C14.886,198.43 18.891,204.862 24.152,210.202C29.408,215.542 35.841,219.669 43.449,222.582C51.053,225.494 59.792,226.951 69.664,226.951C77.591,226.951 85.278,226.181 92.723,224.645C100.165,223.109 106.802,220.882 112.627,217.97L108.501,195.396C103.806,197.584 98.465,199.264 92.481,200.436C86.492,201.608 80.344,202.192 74.033,202.192C63.027,202.192 55.017,199.628 50.003,194.493C44.985,189.358 42.315,182.459 41.993,173.793L112.142,173.793C112.95,171.043 113.557,168.009 113.962,164.69C114.364,161.375 114.569,158.098 114.569,154.86ZM82.771,151.461L42.235,151.461C42.88,144.179 45.027,138.153 48.668,133.378C52.309,128.607 57.527,126.217 64.324,126.217C71.28,126.217 76.297,128.523 79.373,133.135C82.445,137.747 83.579,143.857 82.771,151.461Z" style="fill:rgb(0,64,122);fill-rule:nonzero;"/>
                </g>
                <g id="_--IDML-1" serif:id=" [IDML]" transform="matrix(1,0,0,1,263.098,21.7831)">
                    <path d="M267.241,53.155L233.987,53.155L233.987,193.454C233.987,197.664 234.51,201.748 235.565,205.712C236.615,209.679 238.394,213.236 240.905,216.392C243.412,219.547 246.689,222.058 250.735,223.917C254.778,225.775 259.796,226.708 265.785,226.708C269.668,226.708 273.632,226.424 277.679,225.858C281.722,225.29 285.12,224.603 287.873,223.795L286.66,200.493C285.203,200.819 283.663,201.062 282.048,201.221C280.428,201.384 278.892,201.464 277.436,201.464C273.711,201.464 271.083,200.535 269.547,198.673C268.007,196.814 267.241,194.023 267.241,190.298L267.241,53.155Z" style="fill:rgb(0,64,122);fill-rule:nonzero;"/>
                </g>
                <g id="_--IDML-2" serif:id=" [IDML]" transform="matrix(1,0,0,1,263.098,21.7831)">
                    <path d="M339.332,53.155L306.077,53.155L306.077,193.454C306.077,197.664 306.601,201.748 307.655,205.712C308.706,209.679 310.484,213.236 312.995,216.392C315.502,219.547 318.779,222.058 322.826,223.917C326.869,225.775 331.887,226.708 337.875,226.708C341.759,226.708 345.722,226.424 349.769,225.858C353.812,225.29 357.21,224.603 359.964,223.795L358.75,200.493C357.294,200.819 355.754,201.062 354.138,201.221C352.519,201.384 350.983,201.464 349.526,201.464C345.802,201.464 343.174,200.535 341.637,198.673C340.098,196.814 339.332,194.023 339.332,190.298L339.332,53.155Z" style="fill:rgb(0,64,122);fill-rule:nonzero;"/>
                </g>
                <g id="_--IDML-3" serif:id=" [IDML]" transform="matrix(1,0,0,1,263.098,21.7831)">
                    <rect x="379.867" y="106.313" width="33.254" height="118.21" style="fill:rgb(0,64,122);"/>
                </g>
                <g id="_--IDML-4" serif:id=" [IDML]" transform="matrix(1,0,0,1,263.098,21.7831)">
                    <path d="M523.078,172.351C520.324,168.236 517.01,164.724 513.126,161.819C509.242,158.914 505.074,156.532 500.625,154.674C496.173,152.819 492.251,151.166 488.853,149.709C484.158,147.612 480.115,145.757 476.716,144.141C473.318,142.526 471.619,140.106 471.619,136.878C471.619,133.488 473.034,131.269 475.867,130.219C478.696,129.172 482.458,128.645 487.154,128.645C492.331,128.645 497.47,129.335 502.567,130.708C507.665,132.085 512.557,133.825 517.252,135.927L522.35,112.222C516.524,109.12 510.494,106.954 504.266,105.725C498.035,104.5 491.523,103.886 484.726,103.886C478.252,103.886 472.226,104.614 466.643,106.071C461.06,107.527 456.206,109.712 452.079,112.624C447.953,115.537 444.714,119.262 442.37,123.79C440.022,128.322 438.85,133.662 438.85,139.81C438.85,145.476 439.859,150.21 441.884,154.01C443.906,157.814 446.576,161.133 449.895,163.962C453.209,166.795 457.055,169.222 461.424,171.244C465.793,173.269 470.322,175.249 475.017,177.191C480.843,179.618 485.534,181.681 489.096,183.38C492.653,185.08 494.436,187.791 494.436,191.512C494.436,195.722 492.615,198.635 488.974,200.25C485.333,201.87 480.759,202.678 475.26,202.678C469.594,202.678 464.011,202.071 458.511,200.857C453.008,199.643 447.668,197.986 442.491,195.881L437.637,219.426C442.977,221.694 449.246,223.515 456.448,224.888C463.647,226.26 470.322,226.951 476.474,226.951C483.756,226.951 490.469,226.101 496.62,224.41C502.768,222.714 508.108,220.211 512.641,216.904C517.169,213.597 520.73,209.478 523.321,204.555C525.907,199.632 527.204,194.023 527.204,187.727C527.204,181.594 525.828,176.47 523.078,172.351Z" style="fill:rgb(0,64,122);fill-rule:nonzero;"/>
                </g>
                <g transform="matrix(1,0,0,1,-124.198,-13941.6)">
                    <path d="M290.238,14194.3L341.295,14087.2L337.519,14085.4L286.461,14192.5L290.238,14194.3Z" style="fill:rgb(0,189,230);"/>
                </g>
                <g transform="matrix(1,0,0,1,-144.557,-13921.6)">
                    <path d="M181.324,14201.6L309.02,14175.5L308.184,14171.4L180.488,14197.5L181.324,14201.6Z" style="fill:rgb(0,189,230);"/>
                </g>
                <g transform="matrix(1,0,0,1,-142.377,-13930.9)">
                    <path d="M180.776,14208.8L248.319,13968L244.291,13966.8L176.748,14207.7L180.776,14208.8Z" style="fill:rgb(0,189,230);"/>
                </g>
                <g transform="matrix(1,0,0,1,-144.557,-13921.6)">
                    <path d="M310.722,14172.8L250.196,13957.5L246.168,13958.7L306.695,14173.9L310.722,14172.8Z" style="fill:rgb(0,189,230);"/>
                </g>
                <g transform="matrix(1,0,0,1,-144.557,-13921.6)">
                    <path d="M182.15,14201.2L361.436,14068.6L358.948,14065.2L179.662,14197.8L182.15,14201.2Z" style="fill:rgb(0,189,230);"/>
                </g>
                <g transform="matrix(1,0,0,1,-176.214,-13921.3)">
                    <path d="M393.315,14065.4L281.501,13955.7L278.571,13958.7L390.385,14068.4L393.315,14065.4Z" style="fill:rgb(0,189,230);"/>
                </g>
                <g id="_--IDML-5" serif:id=" [IDML]" transform="matrix(1,0,0,1,-173.614,-16203.7)">
                    <circle cx="209.833" cy="16480" r="29.183" style="fill:rgb(0,64,122);"/>
                </g>
                <g id="_--IDML-6" serif:id=" [IDML]" transform="matrix(1,0,0,1,-81.991,-14568.5)">
                    <circle cx="185.967" cy="14605.6" r="25.864" style="fill:rgb(0,189,230);"/>
                </g>
                <g id="_--IDML-7" serif:id=" [IDML]" transform="matrix(1,0,0,1,46.8172,-13019.3)">
                    <circle cx="167.628" cy="13165.3" r="23.313" style="fill:rgb(110,124,124);"/>
                </g>
                <g id="_--IDML-8" serif:id=" [IDML]" transform="matrix(1,0,0,1,28.5799,-10397.3)">
                    <circle cx="135.582" cy="10648.4" r="20.02" style="fill:rgb(191,184,0);"/>
                </g>
                <g id="_--IDML-9" serif:id=" [IDML]" transform="matrix(1,0,0,1,955.345,-10168)">
                    <path d="M-482.859,10352.4C-482.859,10345.6 -488.352,10340.1 -495.117,10340.1L-544.149,10340.1C-550.914,10340.1 -556.407,10345.6 -556.407,10352.4C-556.407,10359.1 -550.914,10364.6 -544.149,10364.6L-495.117,10364.6C-488.352,10364.6 -482.859,10359.1 -482.859,10352.4Z" style="fill:rgb(0,64,122);"/>
                </g>
                <g id="_--IDML-10" serif:id=" [IDML]" transform="matrix(1,0,0,1,483.859,-14113.3)">
                    <circle cx="175.654" cy="14206.5" r="20.02" style="fill:rgb(0,189,230);"/>
                </g>
                <g id="_--IDML-11" serif:id=" [IDML]" transform="matrix(1,0,0,1,279.162,263.523)">
                    <path d="M19.319,26.689C18.859,25.798 18.252,25.015 17.496,24.34C16.74,23.665 15.869,23.071 14.884,22.558C13.898,22.045 12.865,21.559 11.785,21.1C10.976,20.749 10.307,20.432 9.781,20.148C9.254,19.865 8.829,19.581 8.505,19.298C8.181,19.014 7.958,18.711 7.837,18.387C7.715,18.063 7.655,17.685 7.655,17.253C7.655,16.308 8.019,15.612 8.748,15.167C9.477,14.721 10.435,14.499 11.623,14.499C12.703,14.499 13.763,14.64 14.803,14.924C15.842,15.207 16.834,15.579 17.78,16.038L18.833,11.704C17.698,11.11 16.524,10.678 15.309,10.408C14.094,10.138 12.757,10.003 11.3,10.003C8.465,10.003 6.203,10.671 4.516,12.008C2.828,13.344 1.985,15.255 1.985,17.739C1.985,18.738 2.153,19.636 2.491,20.432C2.828,21.228 3.307,21.951 3.928,22.599C4.549,23.247 5.319,23.834 6.237,24.36C7.155,24.887 8.208,25.393 9.396,25.879C11.07,26.554 12.312,27.202 13.122,27.823C13.932,28.444 14.337,29.241 14.337,30.213C14.337,31.266 13.912,32.069 13.061,32.622C12.211,33.176 11.11,33.453 9.76,33.453C8.491,33.453 7.256,33.291 6.055,32.967C4.853,32.643 3.766,32.251 2.795,31.792L1.62,36.126C2.835,36.72 4.165,37.172 5.609,37.482C7.053,37.792 8.491,37.948 9.922,37.948C11.434,37.948 12.811,37.746 14.054,37.341C15.295,36.936 16.355,36.369 17.233,35.64C18.11,34.911 18.792,34.047 19.278,33.048C19.764,32.049 20.007,30.955 20.007,29.767C20.007,28.606 19.777,27.58 19.319,26.689ZM41.512,28.016C41.512,29.72 41.053,31.052 40.135,32.012C39.217,32.973 37.853,33.453 36.045,33.453C34.235,33.453 32.872,32.973 31.954,32.012C31.036,31.052 30.577,29.72 30.577,28.016L30.577,10.489L24.907,10.489L24.907,27.742C24.907,29.281 25.163,30.678 25.677,31.934C26.189,33.189 26.918,34.263 27.864,35.154C28.808,36.045 29.97,36.733 31.347,37.219C32.724,37.705 34.289,37.948 36.045,37.948C37.772,37.948 39.332,37.705 40.722,37.219C42.113,36.733 43.28,36.045 44.226,35.154C45.17,34.263 45.899,33.189 46.413,31.934C46.925,30.678 47.182,29.281 47.182,27.742L47.182,10.489L41.512,10.489L41.512,28.016ZM71.502,15.207C70.921,14.141 70.118,13.257 69.092,12.555C68.066,11.853 66.858,11.333 65.468,10.995C64.077,10.658 62.572,10.489 60.952,10.489L53.581,10.489L53.581,37.462L59.251,37.462L59.251,27.864L60.344,27.864C62.018,27.864 63.591,27.681 65.063,27.317C66.534,26.952 67.81,26.399 68.89,25.656C69.969,24.914 70.82,23.989 71.441,22.882C72.062,21.775 72.373,20.479 72.373,18.994C72.373,17.536 72.082,16.274 71.502,15.207ZM65.083,22.356C64.003,23.085 62.517,23.449 60.628,23.449L59.251,23.449L59.251,14.904L60.911,14.904C62.693,14.904 64.104,15.234 65.144,15.896C66.183,16.558 66.703,17.59 66.703,18.994C66.703,20.506 66.162,21.627 65.083,22.356ZM94.587,15.207C94.006,14.141 93.203,13.257 92.177,12.555C91.15,11.853 89.942,11.333 88.552,10.995C87.161,10.658 85.656,10.489 84.036,10.489L76.665,10.489L76.665,37.462L82.335,37.462L82.335,27.864L83.429,27.864C85.103,27.864 86.675,27.681 88.147,27.317C89.618,26.952 90.894,26.399 91.974,25.656C93.054,24.914 93.904,23.989 94.526,22.882C95.147,21.775 95.457,20.479 95.457,18.994C95.457,17.536 95.167,16.274 94.587,15.207ZM88.167,22.356C87.087,23.085 85.602,23.449 83.712,23.449L82.335,23.449L82.335,14.904L83.996,14.904C85.778,14.904 87.188,15.234 88.228,15.896C89.267,16.558 89.787,17.59 89.787,18.994C89.787,20.506 89.247,21.627 88.167,22.356ZM99.75,10.489L99.75,37.462L115.464,37.462L115.464,32.967L105.42,32.967L105.42,10.489L99.75,10.489ZM126.318,22.356L120.769,10.489L114.573,10.489L123.483,27.378L123.483,37.462L129.153,37.462L129.153,27.378L138.063,10.489L131.866,10.489L126.318,22.356ZM158.11,11.056C156.328,11.758 154.829,12.73 153.614,13.972C152.399,15.214 151.481,16.686 150.86,18.387C150.239,20.088 149.929,21.951 149.929,23.976C149.929,26.001 150.239,27.864 150.86,29.565C151.481,31.266 152.399,32.737 153.614,33.979C154.829,35.221 156.328,36.193 158.11,36.895C159.892,37.597 161.943,37.948 164.266,37.948C164.94,37.948 165.629,37.914 166.331,37.848C167.033,37.78 167.714,37.687 168.376,37.567C169.038,37.447 169.672,37.299 170.28,37.125C170.887,36.951 171.434,36.744 171.92,36.503L171.11,32.359C170.246,32.683 169.288,32.946 168.235,33.149C167.182,33.351 166.142,33.453 165.116,33.453C162.038,33.453 159.682,32.653 158.049,31.053C156.415,29.453 155.599,27.094 155.599,23.976C155.599,20.857 156.415,18.498 158.049,16.898C159.682,15.298 162.038,14.499 165.116,14.499C166.142,14.499 167.182,14.6 168.235,14.802C169.288,15.005 170.246,15.268 171.11,15.592L171.92,11.448C171.434,11.207 170.887,11 170.28,10.826C169.672,10.652 169.038,10.505 168.376,10.385C167.714,10.264 167.033,10.171 166.331,10.104C165.629,10.037 164.94,10.003 164.266,10.003C161.943,10.003 159.892,10.354 158.11,11.056ZM199.703,37.462L199.703,10.489L194.033,10.489L194.033,21.424L182.855,21.424L182.855,10.489L177.185,10.489L177.185,37.462L182.855,37.462L182.855,26.122L194.033,26.122L194.033,37.462L199.703,37.462ZM220.52,10.489L214.364,10.489L204.117,37.462L209.99,37.462L211.893,31.792L222.99,31.792L224.894,37.462L230.766,37.462L220.52,10.489ZM221.492,27.297L213.392,27.297L217.442,15.025L221.492,27.297ZM241.053,10.489L235.383,10.489L235.383,37.462L241.053,37.462L241.053,10.489ZM271.185,37.462L271.185,10.489L265.758,10.489L265.758,28.147L253.162,10.489L247.735,10.489L247.735,37.462L253.162,37.462L253.162,19.804L265.758,37.462L271.185,37.462ZM303.665,26.689C303.206,25.798 302.598,25.015 301.843,24.34C301.087,23.665 300.216,23.071 299.231,22.558C298.245,22.045 297.212,21.559 296.132,21.1C295.322,20.749 294.654,20.432 294.128,20.148C293.601,19.865 293.176,19.581 292.852,19.298C292.528,19.014 292.305,18.711 292.184,18.387C292.062,18.063 292.001,17.685 292.001,17.253C292.001,16.308 292.366,15.612 293.095,15.167C293.824,14.721 294.782,14.499 295.97,14.499C297.05,14.499 298.11,14.64 299.15,14.924C300.189,15.207 301.181,15.579 302.126,16.038L303.179,11.704C302.045,11.11 300.871,10.678 299.656,10.408C298.441,10.138 297.104,10.003 295.646,10.003C292.811,10.003 290.55,10.671 288.863,12.008C287.175,13.344 286.331,15.255 286.331,17.739C286.331,18.738 286.5,19.636 286.838,20.432C287.175,21.228 287.654,21.951 288.275,22.599C288.896,23.247 289.666,23.834 290.584,24.36C291.501,24.887 292.554,25.393 293.743,25.879C295.417,26.554 296.659,27.202 297.469,27.823C298.279,28.444 298.684,29.241 298.684,30.213C298.684,31.266 298.259,32.069 297.408,32.622C296.558,33.176 295.457,33.453 294.107,33.453C292.838,33.453 291.603,33.291 290.402,32.967C289.2,32.643 288.113,32.251 287.141,31.792L285.967,36.126C287.182,36.72 288.511,37.172 289.956,37.482C291.4,37.792 292.838,37.948 294.269,37.948C295.781,37.948 297.158,37.746 298.4,37.341C299.642,36.936 300.702,36.369 301.58,35.64C302.457,34.911 303.139,34.047 303.625,33.048C304.111,32.049 304.354,30.955 304.354,29.767C304.354,28.606 304.124,27.58 303.665,26.689ZM334.263,18.589C333.655,16.888 332.778,15.403 331.63,14.134C330.482,12.865 329.065,11.86 327.378,11.117C325.69,10.374 323.766,10.003 321.607,10.003C319.446,10.003 317.522,10.374 315.835,11.117C314.148,11.86 312.723,12.865 311.563,14.134C310.401,15.403 309.524,16.888 308.93,18.589C308.336,20.29 308.039,22.086 308.039,23.976C308.039,25.893 308.336,27.695 308.93,29.382C309.524,31.07 310.401,32.548 311.563,33.817C312.723,35.086 314.148,36.092 315.835,36.834C317.522,37.577 319.446,37.948 321.607,37.948C323.766,37.948 325.69,37.577 327.378,36.834C329.065,36.092 330.482,35.086 331.63,33.817C332.778,32.548 333.655,31.07 334.263,29.382C334.87,27.695 335.174,25.893 335.174,23.976C335.174,22.086 334.87,20.29 334.263,18.589ZM318.144,32.764C317.158,32.278 316.335,31.61 315.673,30.759C315.011,29.909 314.519,28.903 314.195,27.742C313.871,26.581 313.709,25.326 313.709,23.976C313.709,22.626 313.871,21.37 314.195,20.209C314.519,19.048 315.011,18.042 315.673,17.192C316.335,16.341 317.158,15.673 318.144,15.187C319.129,14.701 320.283,14.458 321.607,14.458C322.929,14.458 324.083,14.701 325.069,15.187C326.055,15.673 326.878,16.341 327.54,17.192C328.201,18.042 328.694,19.048 329.018,20.209C329.342,21.37 329.504,22.626 329.504,23.976C329.504,25.326 329.342,26.581 329.018,27.742C328.694,28.903 328.201,29.909 327.54,30.759C326.878,31.61 326.055,32.278 325.069,32.764C324.083,33.25 322.929,33.493 321.607,33.493C320.283,33.493 319.129,33.25 318.144,32.764ZM340.357,10.489L340.357,37.462L356.071,37.462L356.071,32.967L346.027,32.967L346.027,10.489L340.357,10.489ZM376.564,28.016C376.564,29.72 376.105,31.052 375.187,32.012C374.269,32.973 372.905,33.453 371.096,33.453C369.287,33.453 367.924,32.973 367.006,32.012C366.088,31.052 365.629,29.72 365.629,28.016L365.629,10.489L359.959,10.489L359.959,27.742C359.959,29.281 360.215,30.678 360.728,31.934C361.241,33.189 361.97,34.263 362.915,35.154C363.86,36.045 365.021,36.733 366.398,37.219C367.775,37.705 369.341,37.948 371.096,37.948C372.824,37.948 374.383,37.705 375.774,37.219C377.165,36.733 378.332,36.045 379.277,35.154C380.222,34.263 380.951,33.189 381.464,31.934C381.977,30.678 382.234,29.281 382.234,27.742L382.234,10.489L376.564,10.489L376.564,28.016ZM386.567,10.489L386.567,14.985L394.019,14.985L394.019,37.462L399.689,37.462L399.689,14.985L407.141,14.985L407.141,10.489L386.567,10.489ZM417.428,10.489L411.758,10.489L411.758,37.462L417.428,37.462L417.428,10.489ZM449.038,18.589C448.43,16.888 447.552,15.403 446.405,14.134C445.257,12.865 443.84,11.86 442.153,11.117C440.465,10.374 438.541,10.003 436.381,10.003C434.221,10.003 432.297,10.374 430.61,11.117C428.922,11.86 427.498,12.865 426.337,14.134C425.176,15.403 424.298,16.888 423.705,18.589C423.111,20.29 422.814,22.086 422.814,23.976C422.814,25.893 423.111,27.695 423.705,29.382C424.298,31.07 425.176,32.548 426.337,33.817C427.498,35.086 428.922,36.092 430.61,36.834C432.297,37.577 434.221,37.948 436.381,37.948C438.541,37.948 440.465,37.577 442.153,36.834C443.84,36.092 445.257,35.086 446.405,33.817C447.552,32.548 448.43,31.07 449.038,29.382C449.645,27.695 449.949,25.893 449.949,23.976C449.949,22.086 449.645,20.29 449.038,18.589ZM432.919,32.764C431.933,32.278 431.109,31.61 430.448,30.759C429.786,29.909 429.294,28.903 428.97,27.742C428.646,26.581 428.484,25.326 428.484,23.976C428.484,22.626 428.646,21.37 428.97,20.209C429.294,19.048 429.786,18.042 430.448,17.192C431.109,16.341 431.933,15.673 432.919,15.187C433.904,14.701 435.058,14.458 436.381,14.458C437.704,14.458 438.858,14.701 439.844,15.187C440.829,15.673 441.653,16.341 442.315,17.192C442.976,18.042 443.469,19.048 443.793,20.209C444.117,21.37 444.279,22.626 444.279,23.976C444.279,25.326 444.117,26.581 443.793,27.742C443.469,28.903 442.976,29.909 442.315,30.759C441.653,31.61 440.829,32.278 439.844,32.764C438.858,33.25 437.704,33.493 436.381,33.493C435.058,33.493 433.904,33.25 432.919,32.764ZM478.582,37.462L478.582,10.489L473.155,10.489L473.155,28.147L460.559,10.489L455.132,10.489L455.132,37.462L460.559,37.462L460.559,19.804L473.155,37.462L478.582,37.462ZM501.545,26.689C501.086,25.798 500.478,25.015 499.723,24.34C498.966,23.665 498.096,23.071 497.11,22.558C496.124,22.045 495.092,21.559 494.012,21.1C493.202,20.749 492.534,20.432 492.007,20.148C491.481,19.865 491.056,19.581 490.732,19.298C490.408,19.014 490.185,18.711 490.063,18.387C489.942,18.063 489.881,17.685 489.881,17.253C489.881,16.308 490.246,15.612 490.975,15.167C491.704,14.721 492.662,14.499 493.85,14.499C494.93,14.499 495.99,14.64 497.029,14.924C498.068,15.207 499.061,15.579 500.006,16.038L501.059,11.704C499.925,11.11 498.751,10.678 497.536,10.408C496.321,10.138 494.984,10.003 493.526,10.003C490.691,10.003 488.429,10.671 486.742,12.008C485.055,13.344 484.211,15.255 484.211,17.739C484.211,18.738 484.379,19.636 484.717,20.432C485.055,21.228 485.534,21.951 486.155,22.599C486.776,23.247 487.545,23.834 488.464,24.36C489.381,24.887 490.434,25.393 491.623,25.879C493.296,26.554 494.539,27.202 495.349,27.823C496.159,28.444 496.564,29.241 496.564,30.213C496.564,31.266 496.138,32.069 495.288,32.622C494.437,33.176 493.337,33.453 491.987,33.453C490.718,33.453 489.482,33.291 488.281,32.967C487.08,32.643 485.993,32.251 485.021,31.792L483.847,36.126C485.062,36.72 486.391,37.172 487.836,37.482C489.28,37.792 490.718,37.948 492.149,37.948C493.661,37.948 495.038,37.746 496.28,37.341C497.522,36.936 498.582,36.369 499.459,35.64C500.336,34.911 501.019,34.047 501.505,33.048C501.991,32.049 502.234,30.955 502.234,29.767C502.234,28.606 502.004,27.58 501.545,26.689Z" style="fill:rgb(0,64,122);fill-rule:nonzero;"/>
                </g>
            </g>
        </g>
    </g>
</svg>
